<?xml version="1.0" encoding="UTF-8"?>
<svg width="73px" height="73px" viewBox="0 0 73 73" version="1.1" xmlns="http://www.w3.org/2000/svg" xmlns:xlink="http://www.w3.org/1999/xlink">
    <!-- Generator: sketchtool 52.6 (67491) - http://www.bohemiancoding.com/sketch -->
    <title>A0A6A335-141B-4246-A76F-F3E2C6028F39</title>
    <desc>Created with sketchtool.</desc>
    <defs>
        <polygon id="path-1" points="0 0.8254 72.1753 0.8254 72.1753 72.9994 0 72.9994"></polygon>
    </defs>
    <g id="Desktop" stroke="none" stroke-width="1" fill="none" fill-rule="evenodd">
        <g id="Home-Page" transform="translate(-348.000000, -2666.000000)">
            <g id="Group-20" transform="translate(348.000000, 2665.000000)">
                <g id="Group-3" transform="translate(0.000000, 0.175100)">
                    <mask id="mask-2" fill="white">
                        <use xlink:href="#path-1"></use>
                    </mask>
                    <g id="Clip-2"></g>
                    <path d="M72.1753,36.9124 C72.1753,56.8434 56.0183,72.9994 36.0873,72.9994 C16.1563,72.9994 -0.0007,56.8434 -0.0007,36.9124 C-0.0007,16.9814 16.1563,0.8254 36.0873,0.8254 C56.0183,0.8254 72.1753,16.9814 72.1753,36.9124" id="Fill-1" fill="#EFECFB" mask="url(#mask-2)"></path>
                </g>
                <path d="M36.9146,38.3453 C36.5766,38.6803 36.5746,39.2283 36.9106,39.5663 L67.6466,70.5123 C67.9816,70.8493 68.5296,70.8513 68.8676,70.5163 L71.0036,68.3953 C71.3416,68.0593 71.3436,67.5113 71.0086,67.1733 L40.2716,36.2273 C39.9366,35.8893 39.3886,35.8883 39.0506,36.2243 L36.9146,38.3453 Z M71.8276,69.2253 L69.6916,71.3463 C68.8966,72.1363 67.6066,72.1313 66.8166,71.3363 L36.0806,40.3903 C35.2906,39.5953 35.2956,38.3043 36.0906,37.5143 L38.2266,35.3933 C39.0216,34.6033 40.3116,34.6083 41.1016,35.4033 L71.8376,66.3493 C72.6276,67.1443 72.6236,68.4343 71.8276,69.2253 Z" id="Fill-4" fill="#BD1A8D"></path>
                <path d="M32.2164,44.1417 L26.5274,49.7927 C26.2454,50.0727 25.7904,50.0707 25.5104,49.7887 C25.2314,49.5077 25.2334,49.0527 25.5144,48.7737 L31.2034,43.1217 C31.4864,42.8427 31.9414,42.8447 32.2204,43.1257 C32.4994,43.4067 32.4974,43.8617 32.2164,44.1417" id="Fill-6" fill="#BD1A8D"></path>
                <path d="M29.7505,37.7848 C29.6135,37.9208 29.4225,38.0018 29.2135,37.9928 L21.2005,37.6588 C20.8045,37.6408 20.4965,37.3058 20.5135,36.9098 C20.5295,36.5138 20.8635,36.2058 21.2615,36.2218 L29.2735,36.5568 C29.6705,36.5738 29.9785,36.9088 29.9615,37.3048 C29.9535,37.4928 29.8745,37.6618 29.7505,37.7848" id="Fill-8" fill="#BD1A8D"></path>
                <path d="M32.4878,31.5772 C32.2068,31.8562 31.7518,31.8552 31.4718,31.5742 L25.8208,25.8832 C25.5418,25.6012 25.5438,25.1462 25.8248,24.8672 C26.1058,24.5872 26.5608,24.5892 26.8408,24.8702 L32.4918,30.5612 C32.7708,30.8422 32.7688,31.2972 32.4878,31.5772" id="Fill-10" fill="#BD1A8D"></path>
                <path d="M38.4078,29.2892 C38.2708,29.4252 38.0798,29.5062 37.8698,29.4972 C37.4738,29.4792 37.1668,29.1432 37.1838,28.7472 L37.5388,20.7362 C37.5558,20.3392 37.8898,20.0322 38.2878,20.0502 C38.6838,20.0672 38.9908,20.4032 38.9728,20.7992 L38.6188,28.8112 C38.6118,28.9982 38.5318,29.1662 38.4078,29.2892" id="Fill-12" fill="#BD1A8D"></path>
                <path d="M50.5933,26.5616 C50.5923,26.5626 50.5903,26.5646 50.5903,26.5646 L44.8603,32.1756 C44.5753,32.4546 44.1213,32.4486 43.8433,32.1656 C43.5683,31.8836 43.5713,31.4316 43.8513,31.1526 C43.8523,31.1516 43.8533,31.1506 43.8543,31.1496 L49.5843,25.5396 C49.8683,25.2606 50.3223,25.2666 50.6003,25.5496 C50.8763,25.8316 50.8733,26.2836 50.5933,26.5616" id="Fill-14" fill="#BD1A8D"></path>
                <polygon id="Fill-16" fill="#BD1A8D" points="47.7203 43.0606 43.4523 47.2996 42.6273 46.4696 46.8953 42.2306"></polygon>
                <polygon id="Fill-18" fill="#BD1A8D" points="67.0289 62.5016 62.7609 66.7406 61.9359 65.9096 66.2039 61.6706"></polygon>
            </g>
        </g>
    </g>
</svg>