<?xml version="1.0" encoding="UTF-8"?>
<svg width="64px" height="71px" viewBox="0 0 64 71" version="1.1" xmlns="http://www.w3.org/2000/svg" xmlns:xlink="http://www.w3.org/1999/xlink">
    <!-- Generator: sketchtool 52.6 (67491) - http://www.bohemiancoding.com/sketch -->
    <title>AB955BE6-44DD-484C-9341-EBA0EA0830D8</title>
    <desc>Created with sketchtool.</desc>
    <defs>
        <polygon id="path-1" points="0.675074969 0.0430747305 45.188 0.0430747305 45.188 47 0.675074969 47"></polygon>
    </defs>
    <g id="Desktop" stroke="none" stroke-width="1" fill="none" fill-rule="evenodd">
        <g id="Home-Page" transform="translate(-693.000000, -2666.000000)">
            <g id="Group-14" transform="translate(693.000000, 2666.000000)">
                <polygon id="Fill-1" fill="#EFECFB" points="0 62.8693 54.974 62.8693 54.974 0.0003 0 0.0003"></polygon>
                <g id="Group-13" transform="translate(18.000000, 20.424300)">
                    <g id="Group-4" transform="translate(0.000000, 3.000000)">
                        <mask id="mask-2" fill="white">
                            <use xlink:href="#path-1"></use>
                        </mask>
                        <g id="Clip-3"></g>
                        <path d="M2.8337,28.7922 C1.9377,27.8732 1.9377,26.4082 2.8327,25.4872 C3.7447,24.5492 5.2447,24.5292 6.1827,25.4412 L9.4457,28.7052 C10.3697,29.6302 10.3697,31.1282 9.4457,32.0542 C8.5207,32.9772 7.0217,32.9772 6.0967,32.0542 L4.3657,30.3242 L2.8337,28.7922 Z M8.2277,34.1852 C9.0807,34.0842 9.8757,33.6992 10.4827,33.0912 C11.2987,32.2762 11.7027,31.1372 11.5847,29.9902 C12.0297,30.0922 12.4887,30.1152 12.9417,30.0592 C15.0937,29.7922 16.6207,27.8322 16.3547,25.6802 C17.6907,25.9752 19.0867,25.5652 20.0537,24.5962 C21.6157,23.0282 21.6117,20.4912 20.0447,18.9282 L15.9577,14.8422 L6.9627,5.8482 C5.9707,4.8562 5.9707,3.2472 6.9627,2.2542 C7.9547,1.2622 9.5637,1.2622 10.5567,2.2542 L23.9907,15.6902 C25.0937,16.7932 26.4327,17.5602 27.8617,17.9062 C28.4677,18.0562 29.0907,18.1242 29.7147,18.1092 C29.3047,18.8582 28.9697,19.5922 28.8337,20.1762 C28.7417,20.5712 28.9867,20.9652 29.3827,21.0572 C29.7767,21.1492 30.1717,20.9032 30.2637,20.5092 C30.5847,19.1302 32.6117,16.2002 33.3657,15.1872 L33.3697,15.1832 C34.8417,13.1762 36.1897,11.1422 37.7637,8.7052 C38.3347,7.8162 39.8587,5.8122 41.6287,6.3832 C41.9367,6.4822 42.2467,6.6802 42.5787,6.9872 C43.6127,7.9432 43.7347,8.3892 43.7177,8.7002 C43.6877,9.2032 43.2367,9.9072 42.6117,10.8812 C42.1627,11.5842 41.6027,12.4582 40.9977,13.5662 C40.6057,14.2842 40.3147,15.0192 40.0337,15.7302 C39.9267,16.0022 39.8157,16.2832 39.7017,16.5572 C39.3267,17.4552 38.8497,18.6452 38.4817,19.9012 C37.8147,22.1822 38.1667,24.3182 38.5097,26.3852 C38.7437,27.8022 38.9657,29.1422 38.8827,30.5312 C38.7777,32.3002 38.2757,34.1032 37.3917,35.8912 C37.0677,36.5422 36.7027,37.1732 36.2997,37.7792 C35.1147,38.5692 33.2197,39.1332 31.4147,38.8272 C29.8807,38.5662 28.7137,37.7392 27.9467,36.3692 C27.9397,36.3552 27.9327,36.3432 27.9257,36.3302 C27.7507,36.0422 27.3747,35.9492 27.0867,36.1242 C26.7987,36.2992 26.7057,36.6742 26.8807,36.9632 C27.8237,38.6472 29.3207,39.7082 31.2097,40.0282 C31.6207,40.0982 32.0367,40.1322 32.4537,40.1312 C33.2227,40.1292 33.9877,40.0212 34.7277,39.8092 C34.4867,40.0792 34.2357,40.3442 33.9757,40.6052 C31.3657,43.2162 28.1727,44.9182 24.9837,45.3992 C21.8787,45.8702 19.1557,45.1142 17.3187,43.2762 L8.2277,34.1852 Z M14.9197,15.8802 L17.2767,18.2382 L19.0067,19.9682 C19.9987,20.9602 19.9987,22.5692 19.0067,23.5622 C18.0137,24.5542 16.4047,24.5542 15.4117,23.5622 L15.2357,23.3852 L13.3697,21.5172 L11.3257,19.4742 C10.8497,18.9972 10.5817,18.3502 10.5817,17.6762 C10.5817,16.2722 11.7197,15.1352 13.1227,15.1352 C13.7977,15.1342 14.4437,15.4022 14.9197,15.8802 Z M10.4637,20.6882 L12.3297,22.5552 L14.1967,24.4222 C14.2047,24.4302 14.2127,24.4382 14.2207,24.4462 C15.1747,25.4132 15.1637,26.9702 14.1967,27.9242 C13.2297,28.8782 11.6717,28.8682 10.7177,27.9002 L10.4817,27.6652 L7.2207,24.4032 L6.9857,24.1682 C6.0267,23.2072 6.0267,21.6512 6.9857,20.6902 C7.9467,19.7312 9.5017,19.7302 10.4637,20.6882 Z M1.7967,29.8292 L5.0587,33.0912 L16.2827,44.3122 C17.3887,45.4172 18.7517,46.1962 20.3337,46.6252 C21.2797,46.8782 22.2557,47.0042 23.2347,47.0002 C23.8947,46.9992 24.5537,46.9482 25.2057,46.8482 C28.7037,46.3212 32.1857,44.4712 35.0157,41.6422 C36.5487,40.1102 37.7907,38.3912 38.7087,36.5392 C39.6817,34.5742 40.2337,32.5812 40.3497,30.6152 C40.4407,29.0612 40.1957,27.5772 39.9587,26.1422 C39.6297,24.1502 39.3177,22.2672 39.8917,20.3102 C40.2387,19.1232 40.6967,17.9812 41.0567,17.1202 C41.1757,16.8322 41.2897,16.5452 41.3987,16.2672 C41.6767,15.5662 41.9377,14.9042 42.2857,14.2652 C42.8657,13.2052 43.4087,12.3552 43.8487,11.6722 C44.6227,10.4672 45.1357,9.6702 45.1847,8.7822 C45.2507,7.6232 44.4507,6.7162 43.5767,5.9072 C43.0837,5.4522 42.5947,5.1492 42.0787,4.9832 C40.1507,4.3612 38.1287,5.4272 36.5277,7.9062 C34.9717,10.3192 33.6377,12.3322 32.1877,14.3092 C32.0457,14.5002 31.3857,15.3962 30.6817,16.4912 C29.9697,16.6922 29.0847,16.6902 28.2087,16.4772 C27.0397,16.1932 25.9397,15.5622 25.0277,14.6502 L11.5947,1.2162 C10.0277,-0.3488 7.4887,-0.3478 5.9237,1.2182 C4.3587,2.7852 4.3597,5.3242 5.9267,6.8892 L12.7277,13.6892 C10.6767,13.8942 9.1147,15.6192 9.1127,17.6792 C9.1127,17.9662 9.1437,18.2532 9.2037,18.5342 C8.7497,18.4782 8.2907,18.5012 7.8457,18.6032 C5.7337,19.0872 4.4137,21.1912 4.8977,23.3022 C3.7507,23.1842 2.6117,23.5882 1.7967,24.4042 C0.3007,25.9032 0.3017,28.3302 1.7967,29.8292 Z" id="Fill-2" fill="#008EFA" mask="url(#mask-2)"></path>
                    </g>
                    <path d="M35.5036,4.6482 C35.7886,4.3602 35.7856,3.8962 35.4976,3.6102 C35.2096,3.3252 34.7446,3.3272 34.4596,3.6152 L30.7906,7.3232 C30.7726,7.3402 30.7546,7.3572 30.7376,7.3772 C30.4676,7.6782 30.4926,8.1422 30.7946,8.4132 C31.0976,8.6832 31.5616,8.6572 31.8316,8.3552 L35.5036,4.6482 Z" id="Fill-5" fill="#008EFA"></path>
                    <path d="M30.154,1.0271 C30.156,1.0161 30.159,1.0051 30.161,0.9941 C30.242,0.5961 29.985,0.2091 29.588,0.1291 C29.19,0.0481 28.803,0.3051 28.722,0.7021 L27.569,5.7911 C27.479,6.1861 27.727,6.5791 28.123,6.6691 C28.175,6.6811 28.23,6.6871 28.285,6.6871 C28.628,6.6871 28.925,6.4501 29.001,6.1161 L30.154,1.0271 Z" id="Fill-7" fill="#008EFA"></path>
                    <path d="M25.4118,5.7156 L23.6998,0.7876 C23.5658,0.4036 23.1478,0.2016 22.7658,0.3356 C22.3828,0.4686 22.1798,0.8866 22.3128,1.2696 L24.0248,6.1976 C24.1588,6.5796 24.5768,6.7816 24.9598,6.6486 C25.3418,6.5156 25.5448,6.0976 25.4118,5.7156" id="Fill-9" fill="#008EFA"></path>
                    <path d="M22.154,7.2742 L18.092,3.9962 C17.776,3.7422 17.314,3.7922 17.06,4.1082 C16.805,4.4242 16.856,4.8862 17.172,5.1402 L21.233,8.4162 C21.549,8.6702 22.01,8.6202 22.264,8.3052 C22.518,7.9892 22.468,7.5282 22.154,7.2742" id="Fill-11" fill="#008EFA"></path>
                </g>
            </g>
        </g>
    </g>
</svg>