<?xml version="1.0" encoding="UTF-8"?>
<svg width="56px" height="60px" viewBox="0 0 56 60" version="1.1" xmlns="http://www.w3.org/2000/svg" xmlns:xlink="http://www.w3.org/1999/xlink">
    <!-- Generator: sketchtool 52.6 (67491) - http://www.bohemiancoding.com/sketch -->
    <title>F3420CEC-4559-46FF-A4EE-E79D26D22053</title>
    <desc>Created with sketchtool.</desc>
    <g id="Mobile" stroke="none" stroke-width="1" fill="none" fill-rule="evenodd">
        <g id="Mobile-Home-page" transform="translate(-132.000000, -2777.000000)">
            <g id="Group-4" transform="translate(132.000000, 2777.000000)">
                <polygon id="Fill-1" fill="#EFECFB" points="0 50.4172174 39.515 50.4172174 39.515 -0.000173913043 0 -0.000173913043"></polygon>
                <path d="M35.464625,51.4281739 C35.18375,51.4412174 34.96675,51.6786087 34.979,51.9568696 C34.993,52.2368696 35.231,52.4525217 35.51275,52.4394783 L50.077125,52.4394783 C50.358,52.4429565 50.589,52.2203478 50.5925,51.9403478 C50.596875,51.662087 50.372,51.4316522 50.091125,51.4281739 C50.08675,51.4281739 50.0815,51.4281739 50.077125,51.4281739 L35.51275,51.4281739 C35.496125,51.4273043 35.480375,51.4273043 35.464625,51.4281739 Z M29.533875,50.7168696 C30.219875,50.7168696 30.77375,51.2673043 30.77375,51.949913 C30.77375,52.6316522 30.219875,53.1664348 29.533875,53.1664348 C28.847875,53.1664348 28.294,52.6316522 28.294,51.949913 C28.294,51.2673043 28.847875,50.7168696 29.533875,50.7168696 Z M29.533875,49.7055652 C28.298375,49.7055652 27.276375,50.7203478 27.276375,51.949913 C27.276375,53.1786087 28.298375,54.162087 29.533875,54.162087 C30.769375,54.162087 31.775625,53.1786087 31.775625,51.949913 C31.775625,50.7203478 30.769375,49.7055652 29.533875,49.7055652 Z M35.464625,42.7368696 C35.18375,42.7507826 34.96675,42.9873043 34.979,43.2664348 C34.993,43.5455652 35.231,43.7612174 35.51275,43.7481739 L50.077125,43.7481739 C50.358,43.7525217 50.589,43.5290435 50.5925,43.249913 C50.596875,42.9707826 50.372,42.7412174 50.091125,42.7368696 L50.077125,42.7368696 L35.51275,42.7368696 C35.496125,42.736 35.480375,42.736 35.464625,42.7368696 Z M32.6025,39.829913 C32.564875,39.8307826 32.528125,39.836 32.491375,39.8455652 C32.37675,39.8733913 32.27525,39.9412174 32.204375,40.0351304 L28.674625,44.4125217 L27.132875,42.8951304 C26.956125,42.6777391 26.635875,42.6429565 26.417125,42.8186087 C26.198375,42.9942609 26.163375,43.3125217 26.340125,43.529913 C26.36375,43.5577391 26.389125,43.5838261 26.417125,43.6064348 L28.357,45.5342609 C28.555625,45.7316522 28.877625,45.7325217 29.07625,45.536 C29.092,45.5203478 29.106875,45.5038261 29.12,45.4864348 L33.000625,40.6673043 C33.184375,40.456 33.161625,40.1368696 32.949875,39.9533913 C32.8545,39.869913 32.73025,39.8264348 32.6025,39.829913 Z M35.464625,34.0464348 C35.18375,34.0594783 34.96675,34.296 34.979,34.576 C34.993,34.8542609 35.231,35.0707826 35.51275,35.0577391 L50.077125,35.0577391 C50.358,35.0612174 50.589,34.8377391 50.5925,34.5594783 C50.596875,34.2794783 50.372,34.049913 50.091125,34.0464348 L50.077125,34.0464348 L35.51275,34.0464348 C35.496125,34.0455652 35.480375,34.0455652 35.464625,34.0464348 Z M29.533875,33.3351304 C30.219875,33.3351304 30.77375,33.869913 30.77375,34.5516522 C30.77375,35.2342609 30.219875,35.7846957 29.533875,35.7846957 C28.847875,35.7846957 28.294,35.2342609 28.294,34.5516522 C28.294,33.869913 28.847875,33.3351304 29.533875,33.3351304 Z M29.533875,32.3394783 C28.298375,32.3394783 27.276375,33.3229565 27.276375,34.5516522 C27.276375,35.7803478 28.298375,36.796 29.533875,36.796 C30.769375,36.796 31.775625,35.7803478 31.775625,34.5516522 C31.775625,33.3229565 30.769375,32.3394783 29.533875,32.3394783 Z M23.142,16.7273043 L44.702875,16.7273043 L44.702875,25.1342609 C44.702875,26.5429565 45.836875,27.709913 47.2465,27.709913 L50.7605,27.709913 C51.04225,27.7142609 51.272375,27.4907826 51.27675,27.2107826 C51.28025,26.9325217 51.055375,26.702087 50.775375,26.6986087 C50.770125,26.6986087 50.764875,26.6986087 50.7605,26.6986087 L47.2465,26.6986087 C46.391625,26.6986087 45.7205,26.0073043 45.7205,25.1342609 L45.7205,17.0273043 L54.688375,26.082087 L54.688375,58.1907826 L23.142,58.1907826 L23.142,16.7273043 Z M22.887375,15.716 C22.47,15.716 22.124375,16.0690435 22.124375,16.4751304 L22.124375,58.4281739 C22.124375,58.8333913 22.47,59.202087 22.887375,59.202087 L54.943,59.202087 C55.358625,59.202087 55.706,58.8333913 55.706,58.4281739 L55.706,25.8612174 C55.705125,25.7307826 55.6535,25.6064348 55.5625,25.5133913 L45.975125,15.8586087 C45.880625,15.7681739 45.7555,15.7177391 45.62425,15.716 L22.887375,15.716 Z" id="Fill-2" fill="#545EC3"></path>
            </g>
        </g>
    </g>
</svg>