<?xml version="1.0" encoding="UTF-8"?>
<svg width="71px" height="71px" viewBox="0 0 71 71" version="1.1" xmlns="http://www.w3.org/2000/svg" xmlns:xlink="http://www.w3.org/1999/xlink">
    <!-- Generator: sketchtool 52.6 (67491) - http://www.bohemiancoding.com/sketch -->
    <title>1E96DC57-3A08-41B6-A3F9-D9168C031BBB</title>
    <desc>Created with sketchtool.</desc>
    <defs>
        <polygon id="path-1" points="0 0.774 70.226 0.774 70.226 71 0 71"></polygon>
    </defs>
    <g id="Desktop" stroke="none" stroke-width="1" fill="none" fill-rule="evenodd">
        <g id="Home-Page" transform="translate(-685.000000, -2918.000000)">
            <g id="Group-8" transform="translate(685.000000, 2917.000000)">
                <g id="Group-3" transform="translate(0.000000, 0.226200)">
                    <mask id="mask-2" fill="white">
                        <use xlink:href="#path-1"></use>
                    </mask>
                    <g id="Clip-2"></g>
                    <path d="M70.2265,35.887 C70.2265,55.279 54.5055,71 35.1135,71 C15.7205,71 -0.0005,55.279 -0.0005,35.887 C-0.0005,16.494 15.7205,0.774 35.1135,0.774 C54.5055,0.774 70.2265,16.494 70.2265,35.887" id="Fill-1" fill="#EFECFB" mask="url(#mask-2)"></path>
                </g>
                <path d="M49.122,53.4901 C47.263,55.3921 42.976,57.0001 40.265,58.4061 C38.246,59.4431 34.222,60.9431 29.94,59.3371 C29.65,59.2371 22.95,56.9501 18.03,56.2541 L16.357,46.4021 C18.271,45.4351 22.236,43.8441 24.777,45.7241 C25.016,45.8611 30.633,49.0651 33.954,49.6411 C35.329,49.9171 37.678,50.7061 38.125,51.6531 C38.217,51.8481 38.21,52.0381 38.111,52.2551 C36.389,53.9901 33.98,54.2271 31.647,52.8751 C29.717,51.7561 27.385,51.4271 27.286,51.4141 C26.98,51.3701 26.709,51.5841 26.669,51.8841 C26.627,52.1831 26.837,52.4601 27.138,52.5021 C27.16,52.5051 29.359,52.8171 31.098,53.8241 C33.913,55.4571 36.868,55.0631 38.884,53.0391 C39.493,52.7281 45.38,49.7841 48.492,50.5711 C49.632,50.8561 50.03,52.5621 49.122,53.4901 Z M7.267,59.9621 L5.075,47.0521 L15.066,45.3561 L17.259,58.2661 L7.267,59.9621 Z M29.855,40.1321 C29.151,39.5621 28.755,39.3781 26.811,38.2441 C26.55,38.0921 26.214,38.1791 26.06,38.4421 C25.908,38.7041 25.996,39.0401 26.258,39.1921 C28.16,40.3021 28.535,40.4711 29.181,40.9971 C27.834,42.2621 25.789,42.4231 24.266,41.3261 C22.912,40.3501 20.573,35.6161 19.408,33.0511 C22.21,33.3441 27.44,34.0651 28.794,35.0411 C30.427,36.2171 30.851,38.4301 29.855,40.1321 Z M34.558,21.1031 C35.766,19.5481 41.476,16.9891 44.449,15.7711 C44.006,18.9531 42.944,25.1201 41.737,26.6751 C40.344,28.4711 37.841,28.9761 35.85,27.7981 C36.359,26.0791 36.991,24.7801 37.775,24.2061 C38.02,24.0271 38.074,23.6831 37.894,23.4391 C37.716,23.1941 37.372,23.1401 37.128,23.3201 C36.225,23.9801 35.512,25.3471 34.944,27.1061 C33.343,25.5131 33.139,22.9331 34.558,21.1031 Z M38.035,35.0411 C39.389,34.0651 44.619,33.3441 47.421,33.0511 C46.256,35.6161 43.917,40.3501 42.563,41.3261 C41.039,42.4241 38.994,42.2621 37.648,40.9971 C38.293,40.4721 38.668,40.3021 40.57,39.1921 C40.832,39.0401 40.921,38.7031 40.768,38.4421 C40.615,38.1801 40.278,38.0921 40.018,38.2441 C38.069,39.3811 37.678,39.5621 36.974,40.1321 C35.977,38.4301 36.402,36.2171 38.035,35.0411 Z M48.759,49.5071 C45.879,48.7711 41.252,50.7001 39.262,51.6311 C39.233,51.4801 39.185,51.3301 39.117,51.1841 C38.291,49.4361 34.59,48.6491 34.155,48.5621 C34.081,48.5491 33.999,48.5281 33.922,48.5111 C33.948,48.4471 33.963,48.3781 33.963,48.3041 C33.963,46.1291 35.178,43.5051 36.847,41.7461 C38.571,43.4141 41.232,43.6361 43.205,42.2161 C45.25,40.7411 48.449,33.4571 48.808,32.6321 C48.885,32.4541 48.863,32.2501 48.749,32.0931 C48.637,31.9361 48.448,31.8471 48.256,31.8671 C47.359,31.9451 39.437,32.6761 37.393,34.1491 C35.231,35.7071 34.699,38.6891 36.142,40.8971 C35.258,41.8031 34.493,42.9161 33.926,44.1011 C34.012,41.1341 34.222,37.4801 34.643,34.0941 C34.977,33.5441 36.478,31.2891 38.699,31.2891 C38.718,31.2891 38.737,31.2891 38.753,31.2891 C39.053,31.2891 39.298,31.0491 39.302,30.7491 C39.307,30.4461 39.064,30.1971 38.761,30.1921 C37.114,30.1851 35.827,31.0621 34.949,31.9411 C35.123,30.8591 35.322,29.8301 35.553,28.8931 C37.925,30.1311 40.9,29.5451 42.604,27.3481 C44.401,25.0331 45.61,15.3881 45.66,14.9791 C45.684,14.7871 45.604,14.5961 45.453,14.4781 C45.301,14.3601 45.096,14.3301 44.916,14.4011 C44.531,14.5521 35.488,18.1151 33.691,20.4301 C31.808,22.8571 32.225,26.3471 34.602,28.2711 C34.318,29.3441 34.079,30.5201 33.877,31.7511 C33.308,30.6461 32.35,29.4251 30.785,28.9491 C30.496,28.8641 30.188,29.0241 30.101,29.3151 C30.013,29.6051 30.176,29.9111 30.466,30.0001 C32.848,30.7241 33.515,33.8831 33.547,34.0451 C33.103,37.5811 32.915,41.2601 32.836,43.9581 C32.276,42.8261 31.535,41.7671 30.687,40.8971 C32.131,38.6891 31.598,35.7081 29.437,34.1501 C27.392,32.6771 19.47,31.9461 18.573,31.8671 C18.378,31.8481 18.192,31.9371 18.08,32.0941 C17.967,32.2511 17.944,32.4551 18.021,32.6331 C18.379,33.4581 21.579,40.7421 23.624,42.2171 C25.596,43.6371 28.257,43.4151 29.983,41.7471 C31.449,43.2921 32.764,45.7251 32.782,47.9871 C32.783,48.0801 32.814,48.1621 32.856,48.2381 C29.675,47.2541 25.383,44.8071 25.377,44.8071 C22.598,42.7481 18.648,44.0621 16.166,45.2731 L16.057,44.6311 C16.008,44.3371 15.73,44.1331 15.424,44.1821 L4.351,46.0611 C4.053,46.1121 3.851,46.3951 3.901,46.6941 L6.276,60.6861 C6.321,60.9501 6.55,61.1431 6.817,61.1431 C6.848,61.1431 6.879,61.1401 6.909,61.1351 L17.981,59.2561 C18.28,59.2051 18.481,58.9221 18.431,58.6231 L18.222,57.3891 C23.016,58.1311 29.514,60.3511 29.567,60.3701 C33.278,61.7631 37.286,61.1691 40.767,59.3811 C43.506,57.9611 47.871,56.3381 49.905,54.2581 C51.393,52.7391 50.742,50.0021 48.759,49.5071 Z" id="Fill-4" fill="#F5A623"></path>
                <path d="M10.331,47.4237 C11.195,47.4237 11.896,48.1247 11.896,48.9887 C11.896,49.8527 11.195,50.5537 10.331,50.5537 C9.467,50.5537 8.767,49.8527 8.767,48.9887 C8.767,48.1247 9.467,47.4237 10.331,47.4237" id="Fill-6" fill="#F5A623"></path>
            </g>
        </g>
    </g>
</svg>