<?xml version="1.0" encoding="UTF-8"?>
<svg width="65px" height="70px" viewBox="0 0 65 70" version="1.1" xmlns="http://www.w3.org/2000/svg" xmlns:xlink="http://www.w3.org/1999/xlink">
    <!-- Generator: sketchtool 52.6 (67491) - http://www.bohemiancoding.com/sketch -->
    <title>BF084A49-01B0-4FC0-BD09-BCE8525757CF</title>
    <desc>Created with sketchtool.</desc>
    <g id="Desktop" stroke="none" stroke-width="1" fill="none" fill-rule="evenodd">
        <g id="Home-Page" transform="translate(-1026.000000, -2667.000000)">
            <g id="Group-19" transform="translate(1026.000000, 2667.000000)">
                <path d="M59.7143,34.6826 C59.7143,51.1716 46.3463,64.5396 29.8573,64.5396 C13.3673,64.5396 0.0003,51.1716 0.0003,34.6826 C0.0003,18.1926 13.3673,4.8256 29.8573,4.8256 C46.3463,4.8256 59.7143,18.1926 59.7143,34.6826" id="Fill-1" fill="#EFECFB"></path>
                <path d="M33.3227,38.1484 C31.4167,40.0554 28.2977,40.0554 26.3907,38.1484 C24.4847,36.2424 24.4847,33.1224 26.3907,31.2164 C28.2977,29.3104 31.4167,29.3104 33.3227,31.2164 C35.2297,33.1224 35.2297,36.2424 33.3227,38.1484 Z" id="Stroke-3" stroke="#000000" stroke-width="1.189" stroke-linecap="round" stroke-linejoin="round"></path>
                <path d="M62.5151,8.9565 C60.6091,10.8625 57.4891,10.8625 55.5821,8.9565 C53.6761,7.0505 53.6761,3.9305 55.5821,2.0245 C57.4891,0.1175 60.6091,0.1175 62.5151,2.0245 C64.4211,3.9305 64.4211,7.0505 62.5151,8.9565 Z" id="Stroke-5" stroke="#000000" stroke-width="1.189" stroke-linecap="round" stroke-linejoin="round"></path>
                <path d="M35.7992,29.1567 L54.1752,10.7817" id="Stroke-7" stroke="#000000" stroke-width="1.189" stroke-linecap="round" stroke-linejoin="round"></path>
                <path d="M59.0492,1.1889 C57.8942,1.1889 56.8132,1.6349 56.0022,2.4449 C54.3232,4.1239 54.3232,6.8569 56.0022,8.5359 C56.8122,9.3459 57.8942,9.7919 59.0492,9.7919 C60.2032,9.7919 61.2852,9.3459 62.0952,8.5359 C62.9042,7.7269 63.3502,6.6449 63.3502,5.4899 C63.3502,4.3359 62.9042,3.2539 62.0952,2.4449 C61.2842,1.6349 60.2032,1.1889 59.0492,1.1889 M59.0492,10.9839 C57.6412,10.9839 56.2342,10.4479 55.1622,9.3769 C53.0192,7.2339 53.0192,3.7469 55.1622,1.6039 C56.1962,0.5699 57.5762,-0.0001 59.0492,-0.0001 C60.5212,-0.0001 61.9012,0.5699 62.9352,1.6039 C65.0782,3.7469 65.0782,7.2339 62.9352,9.3769 C61.8632,10.4479 60.4562,10.9839 59.0492,10.9839" id="Fill-9" fill="#622D91"></path>
                <path d="M35.7992,29.7509 C35.6472,29.7509 35.4942,29.6929 35.3792,29.5769 C35.1472,29.3449 35.1472,28.9689 35.3792,28.7359 L53.7552,10.3609 C53.9862,10.1289 54.3642,10.1289 54.5952,10.3609 C54.8272,10.5929 54.8272,10.9689 54.5952,11.2019 L36.2192,29.5769 C36.1042,29.6929 35.9512,29.7509 35.7992,29.7509" id="Fill-11" fill="#622D91"></path>
                <path d="M29.8569,30.3769 C28.7539,30.3769 27.6509,30.7969 26.8109,31.6369 C25.1319,33.3159 25.1319,36.0489 26.8109,37.7279 C27.6219,38.5379 28.7029,38.9839 29.8569,38.9839 C31.0109,38.9839 32.0919,38.5379 32.9029,37.7279 C33.7119,36.9189 34.1589,35.8369 34.1589,34.6829 C34.1589,33.5279 33.7119,32.4459 32.9029,31.6369 C32.0629,30.7969 30.9599,30.3769 29.8569,30.3769 M29.8569,40.1729 C28.3849,40.1729 27.0049,39.6029 25.9709,38.5689 C23.8279,36.4259 23.8279,32.9389 25.9709,30.7959 C28.1139,28.6529 31.5999,28.6529 33.7429,30.7959 C34.7779,31.8299 35.3469,33.2099 35.3469,34.6829 C35.3469,36.1539 34.7779,37.5349 33.7429,38.5689 C32.7089,39.6029 31.3289,40.1729 29.8569,40.1729" id="Fill-13" fill="#622D91"></path>
                <path d="M59.0492,59.5727 C57.8942,59.5727 56.8122,60.0187 56.0022,60.8287 C54.3232,62.5077 54.3232,65.2407 56.0022,66.9197 C56.8132,67.7297 57.8942,68.1757 59.0492,68.1757 C60.2032,68.1757 61.2842,67.7297 62.0952,66.9197 C62.9042,66.1107 63.3502,65.0287 63.3502,63.8747 C63.3502,62.7197 62.9042,61.6377 62.0952,60.8287 C61.2852,60.0187 60.2032,59.5727 59.0492,59.5727 M59.0492,69.3647 C57.5762,69.3647 56.1962,68.7947 55.1622,67.7607 C53.0192,65.6177 53.0192,62.1307 55.1622,59.9877 C57.3052,57.8467 60.7922,57.8447 62.9352,59.9877 C65.0782,62.1307 65.0782,65.6177 62.9352,67.7607 C61.9012,68.7947 60.5212,69.3647 59.0492,69.3647" id="Fill-15" fill="#622D91"></path>
                <path d="M53.7582,59.5947 C53.6062,59.5947 53.4532,59.5367 53.3382,59.4207 L34.9622,41.0457 C34.7302,40.8127 34.7302,40.4367 34.9622,40.2047 C35.1932,39.9727 35.5712,39.9727 35.8022,40.2047 L54.1782,58.5797 C54.4102,58.8127 54.4102,59.1887 54.1782,59.4207 C54.0632,59.5367 53.9102,59.5947 53.7582,59.5947" id="Fill-17" fill="#622D91"></path>
            </g>
        </g>
    </g>
</svg>