<?xml version="1.0" encoding="UTF-8"?>
<svg width="159px" height="51px" viewBox="0 0 159 51" version="1.1" xmlns="http://www.w3.org/2000/svg" xmlns:xlink="http://www.w3.org/1999/xlink">
    <!-- Generator: sketchtool 52.6 (67491) - http://www.bohemiancoding.com/sketch -->
    <title>00E78AE6-A654-4756-9900-3240E9A5A3D0</title>
    <desc>Created with sketchtool.</desc>
    <defs>
        <linearGradient x1="77.7952756%" y1="90.3031116%" x2="29.1338583%" y2="6.22317597%" id="linearGradient-1">
            <stop stop-color="#1BBCEF" offset="0%"></stop>
            <stop stop-color="#1CB7EC" offset="16%"></stop>
            <stop stop-color="#1FA8E2" offset="34%"></stop>
            <stop stop-color="#2390D1" offset="54%"></stop>
            <stop stop-color="#2A6FBA" offset="75%"></stop>
            <stop stop-color="#32449D" offset="97%"></stop>
            <stop stop-color="#333E99" offset="100%"></stop>
        </linearGradient>
        <linearGradient x1="25.7814289%" y1="10.4077301%" x2="74.0317035%" y2="89.4216296%" id="linearGradient-2">
            <stop stop-color="#FDE145" offset="0%"></stop>
            <stop stop-color="#EF5B9B" offset="42%"></stop>
            <stop stop-color="#783E97" offset="100%"></stop>
        </linearGradient>
        <linearGradient x1="68.302541%" y1="81.6971411%" x2="31.6435327%" y2="18.3576075%" id="linearGradient-3">
            <stop stop-color="#1BBCEF" offset="0%"></stop>
            <stop stop-color="#1CB7EC" offset="16%"></stop>
            <stop stop-color="#1FA8E2" offset="34%"></stop>
            <stop stop-color="#2390D1" offset="54%"></stop>
            <stop stop-color="#2A6FBA" offset="75%"></stop>
            <stop stop-color="#32449D" offset="97%"></stop>
            <stop stop-color="#333E99" offset="100%"></stop>
        </linearGradient>
        <linearGradient x1="74.0508356%" y1="13.0923728%" x2="25.9937236%" y2="86.9288559%" id="linearGradient-4">
            <stop stop-color="#622D91" offset="0%"></stop>
            <stop stop-color="#742990" offset="15%"></stop>
            <stop stop-color="#9C218E" offset="52%"></stop>
            <stop stop-color="#B41C8D" offset="82%"></stop>
            <stop stop-color="#BD1A8D" offset="100%"></stop>
        </linearGradient>
    </defs>
    <g id="Desktop" stroke="none" stroke-width="1" fill="none" fill-rule="evenodd">
        <g id="Easy-Save-1" transform="translate(-641.000000, -26.000000)">
            <g id="Header-purple-only" transform="translate(0.000000, -1.000000)">
                <g id="kolopay-logo" transform="translate(641.000000, 27.000000)">
                    <path d="M76.8538141,31.8355381 L76.3046189,32.1936502 C75.9756639,32.421247 75.6030166,32.5805067 75.2094216,32.6617089 C74.8272783,32.7410057 74.4340909,32.7548209 74.0471714,32.7025463 C73.6637924,32.645523 73.2945605,32.5187556 72.95836,32.3287275 C72.6114334,32.1332194 72.3049147,31.8753488 72.0547424,31.5685247 L67.9325857,25.2575848 L65.8986478,27.4125399 L65.8986478,30.7988979 C65.898872,31.0560003 65.845628,31.3104296 65.742191,31.5465354 C65.6437082,31.7741481 65.5017089,31.9810347 65.3239086,32.1559542 C65.1470794,32.3291215 64.9392355,32.4686372 64.7108536,32.5674689 C64.4733121,32.6698587 64.2166452,32.7222875 63.9573067,32.7213943 C63.6949009,32.7220444 63.4351568,32.669653 63.1941809,32.5674689 C62.7271582,32.3718916 62.3552512,32.0060018 62.1564575,31.5465354 C62.0530205,31.3104296 61.9997765,31.0560003 62.0000007,30.7988979 L62,14.1057955 L63.0600751,14.1058492 C63.7939703,14.1013582 64.5007219,14.3785833 65.0301531,14.8786173 C65.2844607,15.121264 65.4930962,15.4062881 65.6464012,15.7204948 C65.7982149,16.0477195 65.8838878,16.4008703 65.8986478,16.7602764 L65.8986478,22.5403309 L72.4474808,14.1058492 L72.967939,14.4922333 C73.2259986,14.6836237 73.4485212,14.9174242 73.625696,15.1833267 C73.9771276,15.7026016 74.1577137,16.3156532 74.1429612,16.9393324 C74.1333702,17.2496323 74.0763205,17.5567404 73.9737325,17.8503193 C73.9286194,17.9882222 73.8731204,18.1226248 73.8076967,18.25241 C73.7391054,18.3874593 73.6544282,18.5140018 73.5554501,18.6293701 L70.5284907,22.3738402 L76.8538141,31.8355381 Z M77.4604832,25.6690995 C77.4492253,24.7090883 77.5991848,23.7538373 77.9043095,22.841899 C78.1718859,22.0190384 78.6063837,21.2581457 79.1815075,20.6052692 C79.7667278,19.9686505 80.487332,19.4667045 81.2920773,19.1351249 C82.1898856,18.7634314 83.1567501,18.5804631 84.13065,18.5979568 C85.1160754,18.5786906 86.0947712,18.7616342 87.0043456,19.1351249 C87.8089245,19.47422 88.5290453,19.9811884 89.1149154,20.6209758 C89.6977022,21.2716348 90.1388832,22.0328135 90.4112714,22.8576056 C90.7163961,23.7695439 90.8663556,24.724795 90.8550978,25.6848062 L90.8550978,25.9518196 C90.8660636,26.9118104 90.7161115,27.8670146 90.4112714,28.7790202 C90.1373534,29.6012624 89.696293,30.3600953 89.1149154,31.0093673 C88.5327376,31.6445581 87.8168661,32.1473154 87.0171176,32.4826529 C85.1873281,33.194748 83.1506038,33.194748 81.3208143,32.4826529 C80.5191571,32.1490501 79.801885,31.6460747 79.2198235,31.0093673 C78.6350106,30.3619909 78.1925663,29.6026473 77.9202745,28.7790202 C77.6154344,27.8670146 77.4654823,26.9118104 77.4764481,25.9518196 L77.4764481,25.6848062 L77.4604832,25.6690995 Z M81.2250244,25.9329716 C81.2230158,26.4666242 81.2754305,26.9991289 81.3814812,27.5224866 C81.4713371,27.9781589 81.640958,28.4150141 81.8827814,28.8135748 C82.1086173,29.1699568 82.4186146,29.4673949 82.7863991,29.680583 C83.2075168,29.9035703 83.6814712,30.0120089 84.159387,29.9947164 C84.6258601,30.0094834 85.0878344,29.9010109 85.4972519,29.680583 C85.8645767,29.4668039 86.1744447,29.16949 86.4008695,28.8135748 C86.6485882,28.4168869 86.8216448,27.9795402 86.9117488,27.5224866 C87.0177995,26.9991289 87.0702142,26.4666242 87.0682055,25.9329716 L87.0682055,25.6596755 C87.0704949,25.132247 87.0180711,24.6059653 86.9117488,24.0890085 C86.818774,23.63179 86.6459207,23.1938942 86.4008695,22.7947789 C86.1735723,22.4302599 85.8589309,22.1261021 85.4844799,21.9089228 C85.0683674,21.6849286 84.5982214,21.5763514 84.124264,21.5947894 C83.6553568,21.5760271 83.1902584,21.6847144 82.7800131,21.9089228 C82.4106979,22.1283172 82.1007039,22.432218 81.8763954,22.7947789 C81.6372158,23.19572 81.4677847,23.633148 81.3750952,24.0890085 C81.2687729,24.6059653 81.2163491,25.132247 81.2186384,25.6596755 L81.2186384,25.9329716 L81.2250244,25.9329716 Z M97.257053,13.0000996 L97.257053,31.0030846 C97.2697495,31.7449752 96.818413,32.41851 96.1203467,32.699405 C95.89459,32.7912297 95.6525979,32.8382045 95.4083088,32.8376236 C95.1609558,32.8378139 94.9159058,32.790877 94.6866919,32.699405 C94.2385401,32.5140739 93.8820494,32.163351 93.6936704,31.7224501 C93.5914439,31.496133 93.540247,31.2507202 93.5435997,31.0030846 L93.5435997,15.8618549 C93.5419714,15.477879 93.6190762,15.0975241 93.7703023,14.74354 C93.9200934,14.4014563 94.1371164,14.0918644 94.4089014,13.8325531 C94.6781885,13.5738073 94.994449,13.3670886 95.3412559,13.2231343 C95.7028047,13.0727632 96.0918333,12.9968578 96.4843482,13.0000996 L97.257053,13.0000996 Z M99.6358344,25.6690995 C99.6240103,24.708801 99.7750901,23.7532882 100.082854,22.841899 C100.35043,22.0190384 100.784928,21.2581457 101.360052,20.6052692 C101.93995,19.9644633 102.656179,19.4571652 103.45785,19.1194182 C104.355658,18.7477247 105.322522,18.5647564 106.296422,18.5822501 C107.276489,18.565166 108.249522,18.7480671 109.154153,19.1194182 C109.958732,19.4585133 110.678853,19.9654817 111.264723,20.6052692 C111.857554,21.2584837 112.306541,22.0253486 112.58343,22.8576056 C112.891193,23.7689949 113.042273,24.7245076 113.030449,25.6848062 L113.030449,25.9518196 C113.041975,26.9120973 112.890903,27.8675617 112.58343,28.7790202 C112.310628,29.6010768 111.870647,30.3599216 111.290267,31.0093673 C110.707475,31.6438813 109.991766,32.1465248 109.192469,32.4826529 C107.362679,33.194748 105.325955,33.194748 103.496166,32.4826529 C102.696502,32.1418742 101.983386,31.6312451 101.407947,30.9873779 C100.823134,30.3400016 100.38069,29.580658 100.108398,28.7570308 C99.8009244,27.8455724 99.6498523,26.8901079 99.6613784,25.9298302 L99.6613784,25.6628169 L99.6358344,25.6690995 Z M103.403569,25.9329716 C103.399968,26.4666958 103.452398,26.9993592 103.560025,27.5224866 C103.649881,27.9781589 103.819502,28.4150141 104.061326,28.8135748 C104.28626,29.1706695 104.596457,29.4682992 104.964943,29.680583 C105.384897,29.9035986 105.857836,30.0120569 106.334738,29.9947164 C106.80227,30.0098945 107.265381,29.9014139 107.675796,29.680583 C108.044514,29.4674995 108.355575,29.1700926 108.582607,28.8135748 C108.831382,28.4170761 109.00552,27.9797292 109.096679,27.5224866 C109.201615,26.9990163 109.25296,26.4665168 109.249943,25.9329716 L109.249943,25.6596755 C109.253239,25.1323563 109.201885,24.6060801 109.096679,24.0890085 C109.002651,23.6316075 108.828717,23.1937111 108.582607,22.7947789 C108.356242,22.4295308 108.041393,22.125172 107.666217,21.9089228 C107.251392,21.6845899 106.782172,21.5759714 106.309194,21.5947894 C105.840287,21.5760271 105.375189,21.6847144 104.964943,21.9089228 C104.594917,22.1274209 104.284726,22.4315152 104.061326,22.7947789 C103.822146,23.19572 103.652715,23.633148 103.560025,24.0890085 C103.452164,24.6057374 103.399724,25.1321766 103.403569,25.6596755 L103.403569,25.9329716 Z M122.561539,14.3414492 L116.217058,14.3414492 L116.217058,32.7339596 L117.631555,32.7339596 L117.631555,25.7162195 L122.574311,25.7162195 C125.939728,25.7162195 128.395142,23.275403 128.395142,20.0429704 C128.395142,16.8105377 125.939728,14.3414492 122.574311,14.3414492 L122.561539,14.3414492 Z M122.561539,24.3937179 L117.631555,24.3937179 L117.631555,15.6545268 L122.574311,15.6545268 C125.128708,15.6545268 126.980645,17.4953485 126.980645,20.0523944 C126.980645,22.6094402 125.138287,24.4125659 122.574311,24.4125659 L122.561539,24.3937179 Z M142.297442,19.587477 L142.297442,22.5560376 C141.144688,20.5048786 138.931911,19.2506992 136.550051,19.2984742 C132.700456,19.2984743 129.579743,22.368696 129.579743,26.1560063 C129.579743,29.9433166 132.700456,33.0135383 136.550051,33.0135383 C138.931911,33.0613134 141.144688,31.807134 142.297442,29.755975 L142.297442,32.7245356 L143.657658,32.7245356 L143.657658,19.596901 L142.297442,19.587477 Z M136.661806,31.7507221 C134.355585,31.767269 132.267317,30.4125743 131.374279,28.3206145 C130.481241,26.2286547 130.960091,23.8132556 132.586736,22.2047874 C134.213381,20.5963191 136.666041,20.1129646 138.796909,20.9809263 C140.927777,21.848888 142.31533,23.8964682 142.310214,26.1654303 C142.328177,27.6458688 141.741848,29.0715417 140.68254,30.1231574 C139.623233,31.1747731 138.179464,31.7644577 136.674578,31.7601461 L136.661806,31.7507221 Z M157.547187,19.587477 L152.910958,31.288946 L147.517989,19.596901 L146.074756,19.596901 L152.218078,32.9695597 L151.924323,33.6795011 C151.097337,35.5957149 149.733928,36.9119338 147.945851,36.7517258 L147.945851,37.98627 C150.241614,38.1716087 152.218078,36.462723 153.233451,33.9402319 L159,19.596901 L157.547187,19.587477 Z" id="Shape" fill="#FFFFFF"></path>
                    <rect id="Rectangle" fill="#FFFFFF" x="0" y="0" width="52" height="51" rx="10"></rect>
                    <path d="M15.5,38 C17.9812476,37.9915453 19.9902885,36.2424965 20,34.0823498 L20,15 C19.9922192,17.1608464 17.9820513,18.9108764 15.5,18.9176502 C13.0179487,18.9108764 11.0077808,17.1608464 11,15 L11,34.0823498 C11.0077808,36.2431962 13.0179487,37.9932261 15.5,38 Z" id="Path" fill="url(#linearGradient-1)"></path>
                    <path d="M24.1878362,23.194146 C25.784497,21.6019513 28.3726431,21.6019513 29.969304,23.194146 L39.8042231,33.0400006 C41.3985923,34.633446 41.3985923,37.2137331 39.8042231,38.8071786 C38.2068294,40.3976071 35.620149,40.3976071 34.0227553,38.8071786 L24.1782004,28.9356922 C22.6035196,27.3426086 22.607817,24.7819613 24.1878362,23.194146 Z" id="Path" fill="url(#linearGradient-2)"></path>
                    <path d="M14.9967814,16.9999983 C16.2116037,17.0012837 17.3072814,16.2697966 17.7718671,15.1473189 C18.2364528,14.0248413 17.9782242,12.7329814 17.1178369,11.8753514 C16.2574496,11.0177214 14.9647679,10.7636413 13.8437879,11.2318282 C12.7228078,11.7000151 11.9948422,12.7980358 12.0000275,14.0128483 C12.0053202,15.6641582 13.3454637,17.0000068 14.9967814,16.9999983 Z" id="Path" fill="url(#linearGradient-3)"></path>
                    <path d="M37.7947326,12.1431464 C39.3682685,13.6917337 39.4059723,16.2405515 37.8789496,17.8362991 L17.8197283,38.7807755 C16.2909401,40.3737409 13.7787912,40.4105361 12.2052674,38.86301 C10.6317315,37.3144226 10.5940277,34.7656048 12.1210504,33.1698572 L32.1802717,12.2127293 C33.7125287,10.6233247 36.224624,10.5921909 37.7947326,12.1431464 Z" id="Path" fill="url(#linearGradient-4)"></path>
                </g>
            </g>
        </g>
    </g>
</svg>