<?xml version="1.0" encoding="UTF-8"?>
<svg width="66px" height="68px" viewBox="0 0 66 68" version="1.1" xmlns="http://www.w3.org/2000/svg" xmlns:xlink="http://www.w3.org/1999/xlink">
    <!-- Generator: sketchtool 52.6 (67491) - http://www.bohemiancoding.com/sketch -->
    <title>C77D4470-A6F6-4783-A8AE-3B37F394E609</title>
    <desc>Created with sketchtool.</desc>
    <g id="Desktop" stroke="none" stroke-width="1" fill="none" fill-rule="evenodd">
        <g id="Home-Page" transform="translate(-1024.000000, -2925.000000)">
            <g id="Group-4" transform="translate(1024.000000, 2925.000000)">
                <polygon id="Fill-1" fill="#EFECFB" points="0 59.9803 52.001 59.9803 52.001 0.0003 0 0.0003"></polygon>
                <path d="M52.684,65.9293 L59.172,65.9293 L59.172,62.6843 L52.684,62.6843 L52.684,65.9293 Z M31.056,65.9293 L37.544,65.9293 L37.544,62.6843 L31.056,62.6843 L31.056,65.9293 Z M47.767,47.1723 L52.38,51.7683 C50.585,53.3983 48.242,54.4303 45.655,54.5563 L45.655,48.0513 C46.439,47.9513 47.17,47.6363 47.767,47.1723 Z M42.461,47.1723 C43.058,47.6363 43.788,47.9513 44.573,48.0513 L44.573,54.5563 C41.985,54.4303 39.643,53.3983 37.848,51.7683 L42.461,47.1723 Z M49.406,44.2993 L55.912,44.2993 C55.785,46.8783 54.761,49.2153 53.141,51.0083 L48.527,46.3953 C48.986,45.8003 49.308,45.0803 49.406,44.2993 Z M34.316,44.2993 L40.822,44.2993 C40.921,45.0803 41.241,45.8003 41.701,46.3953 L37.088,51.0083 C35.467,49.2153 34.443,46.8783 34.316,44.2993 Z M45.114,40.5153 C46.912,40.5153 48.358,41.9603 48.358,43.7593 C48.358,45.5573 46.912,47.0033 45.114,47.0033 C43.315,47.0033 41.87,45.5573 41.87,43.7593 C41.87,41.9603 43.315,40.5153 45.114,40.5153 Z M53.124,36.5103 C54.748,38.3043 55.785,40.6353 55.912,43.2183 L49.406,43.2183 C49.307,42.4333 48.991,41.7033 48.527,41.1063 L53.124,36.5103 Z M37.104,36.5103 L41.701,41.1063 C41.237,41.7033 40.922,42.4333 40.822,43.2183 L34.316,43.2183 C34.443,40.6353 35.479,38.3043 37.104,36.5103 Z M45.655,32.9613 C48.238,33.0883 50.569,34.1253 52.363,35.7493 L47.767,40.3453 C47.17,39.8823 46.439,39.5663 45.655,39.4673 L45.655,32.9613 Z M44.557,32.9613 C44.561,32.9613 44.567,32.9613 44.573,32.9613 L44.573,39.4673 C43.788,39.5663 43.058,39.8823 42.461,40.3453 L37.865,35.7493 C39.655,34.1283 41.979,33.0913 44.557,32.9613 Z M45.114,31.8633 C38.551,31.8633 33.218,37.1953 33.218,43.7593 C33.218,50.3223 38.551,55.6553 45.114,55.6553 C51.678,55.6553 57.01,50.3223 57.01,43.7593 C57.01,37.1953 51.678,31.8633 45.114,31.8633 Z M27.81,25.9153 L62.417,25.9153 C63.325,25.9153 64.039,26.6293 64.039,27.5373 L64.039,59.9813 C64.039,60.8893 63.325,61.6033 62.417,61.6033 L27.81,61.6033 C26.902,61.6033 26.188,60.8893 26.188,59.9813 L26.188,27.5373 C26.188,26.6293 26.902,25.9153 27.81,25.9153 Z M27.81,24.8343 C26.322,24.8343 25.107,26.0483 25.107,27.5373 L25.107,59.9813 C25.107,61.4693 26.322,62.6843 27.81,62.6843 L29.974,62.6843 L29.974,66.4693 C29.974,66.7683 30.216,67.0103 30.515,67.0103 L38.085,67.0103 C38.383,67.0103 38.625,66.7683 38.625,66.4693 L38.625,62.6843 L51.602,62.6843 L51.602,66.4693 C51.602,66.7683 51.845,67.0103 52.143,67.0103 L59.714,67.0103 C60.013,67.0103 60.254,66.7683 60.255,66.4693 L60.255,62.6843 L62.417,62.6843 C63.905,62.6843 65.121,61.4693 65.121,59.9813 L65.121,27.5373 C65.121,26.0483 63.905,24.8343 62.417,24.8343 L27.81,24.8343 Z" id="Fill-2" fill="#00E0C2"></path>
            </g>
        </g>
    </g>
</svg>